# xmcd
#
# Track frame offsets:
#	182
#	21065
#	41295
#	59660
#
# Disc length: 1084 seconds
#
# Revision: 4
# Processed by: cddbd v1.5.1PL2 Copyright (c) Steve Scherf et al.
# Submitted via: audiograbber 1.83.01
#
DISCID=2b043a04
DTITLE=Black - Feel like change (Maxi)
DYEAR=1991
DGENRE=Pop
TTITLE0=Feel like change
TTITLE1=Nice
TTITLE2=I can let go now
TTITLE3=Wonderful life (1987 album version)
EXTD=
EXTT0=
EXTT1=
EXTT2=
EXTT3=
PLAYORDER=
